<svg width="19" height="15" viewBox="0 0 19 15" fill="none" xmlns="http://www.w3.org/2000/svg">
<path fill-rule="evenodd" clip-rule="evenodd" d="M4.53033 0.792912C4.23744 0.500019 3.76256 0.500019 3.46967 0.792912L0.881282 3.3813C0.539573 3.72301 0.539573 4.27703 0.881282 4.61874C1.22299 4.96045 1.77701 4.96045 2.11872 4.61874L3.125 3.61246V10.5C3.125 12.364 4.63604 13.875 6.5 13.875H10.5C10.9832 13.875 11.375 13.4833 11.375 13C11.375 12.5168 10.9832 12.125 10.5 12.125H6.5C5.60254 12.125 4.875 11.3975 4.875 10.5V3.61246L5.88128 4.61874C6.22299 4.96045 6.77701 4.96045 7.11872 4.61874C7.46043 4.27703 7.46043 3.72301 7.11872 3.3813L4.53033 0.792912ZM9.125 0.749981C8.64175 0.749981 8.25 1.14173 8.25 1.62498C8.25 2.10823 8.64175 2.49998 9.125 2.49998H13.125C14.0225 2.49998 14.75 3.22752 14.75 4.12498V11.0125L13.7437 10.0063C13.402 9.66455 12.848 9.66455 12.5063 10.0063C12.1646 10.348 12.1646 10.902 12.5063 11.2437L15.0947 13.8321C15.3876 14.125 15.8624 14.125 16.1553 13.8321L18.7437 11.2437C19.0854 10.902 19.0854 10.348 18.7437 10.0063C18.402 9.66455 17.848 9.66455 17.5063 10.0063L16.5 11.0125V4.12498C16.5 2.26102 14.989 0.749981 13.125 0.749981H9.125Z" fill="#59BC6C"/>
</svg>
