<svg width="19" height="19" viewBox="0 0 19 19" fill="none" xmlns="http://www.w3.org/2000/svg">
<circle cx="9.5" cy="9.5" r="9.5" fill="#ACB7C1"/>
<path d="M13.7972 6.18184C14.0676 5.91148 14.0676 5.47314 13.7972 5.20277C13.5269 4.93241 13.0885 4.93241 12.8182 5.20277L9.5 8.52093L6.18184 5.20277C5.91148 4.93241 5.47314 4.93241 5.20277 5.20277C4.93241 5.47314 4.93241 5.91148 5.20277 6.18184L8.52093 9.5L5.20277 12.8182C4.93241 13.0885 4.93241 13.5269 5.20277 13.7972C5.47314 14.0676 5.91148 14.0676 6.18184 13.7972L9.5 10.4791L12.8182 13.7972C13.0885 14.0676 13.5269 14.0676 13.7972 13.7972C14.0676 13.5269 14.0676 13.0885 13.7972 12.8182L10.4791 9.5L13.7972 6.18184Z" fill="white"/>
</svg>
